<svg>
<path stroke-width="1px" fill="none" stroke="#000000"
d="M 0.171396,54.6618 15.275956,65.04732 20.976396,83.1582 92.466796,75.9552 105.860196,42.43186 142.294596,28.3808 140.904596,17.4396 148.570796,13.5242 116.008196,0.1 111.933996,0 102.584396,7.00680000000001 85.700396,7.1484 49.304596,19.2206 38.026796,48.40324 17.741536,45.87876 0,26.7838 z"
id="path1"
/>
<path stroke-width="1px" fill="none" stroke="#000000"
d="M 251.4752,39.25 200,8.001 204.5484,0.691600000000003 204.6654,0 258.64324,7.766 262.73372,9.405 271.889,12.8296 286.914,18.9162 284.5218,28.4092 276.9534,36.77162 261.7795,39.696552 256.30566,40.18071 z"
id="path2"
/>
<path stroke-width="1px" fill="none" stroke="#000000"
d="M 464.7862,65.1052 466.84942,60.86332 414.105,0 407.2276,11.2396 400,12.3292 z"
id="path3"
/>
<path stroke-width="1px" fill="none" stroke="#000000"
d="M 633.0606,23.1056 619.642,40.3975 616.90258,78.185 602.3198,76.329 600,26.3565 615.81304,0 z"
id="path4"
/>
<path stroke-width="1px" fill="none" stroke="#000000"
d="M 31.774,223.095 37.10196,228.10094 40.92804,202.6976 21.25416,205.39768 12.40556,200 0,239.90302 27.28772,242.87078 z"
id="path5"
/>
<path stroke-width="1px" fill="none" stroke="#000000"
d="M 200,200.332322 203.12288,215.129682 222.6318,214.441962 222.4228,200 z"
id="path6"
/>
<path stroke-width="1px" fill="none" stroke="#000000"
d="M 400,200.432154 445.3448,200 446.6576,215.974454 415.82588,235.421354 z"
id="path7"
/>
<path stroke-width="1px" fill="none" stroke="#000000"
d="M 676.3092,251.8734 681.65104,242.05062 680.6228,234.26766 670.93548,221.3156 667.24672,217.242 663.06882,214.649 607.6164,200 602.5276,217.474 600,217.279 z"
id="path8"
/>
<path stroke-width="1px" fill="none" stroke="#000000"
d="M 48.7672,438.4572 27.2208,400 6.0056,400.316 0,421.36382 18.9688,450.43808 z"
id="path9"
/>
<path stroke-width="1px" fill="none" stroke="#000000"
d="M 200.257688,406.29222 200,435.04862 218.638948,434.89742 218.817388,434.05042 226.951688,400 z"
id="path10"
/>
<path stroke-width="1px" fill="none" stroke="#000000"
d="M 430.5304,455.1904 414.82186,456.58092 400,418.2234 400.0716,414.1484 421.6125,400 461.1866,411.9324 465.395,426.194 z"
id="path11"
/>
<path stroke-width="1px" fill="none" stroke="#000000"
d="M 646.1682,446.0764 645.173926,445.8882292 627.44688,458.54388 608.8088,458.21588 603.0668,461.83354 600,414.5598 616.8816,400 632.65478,402.5966 644.27253,413.9906 z"
id="path12"
/>
<path stroke-width="1px" fill="none" stroke="#000000"
d="M 0,605.14738 10.71928,605.2367204 11.17686,600 37.7072,655.95518 37.5196,659.56078 37.7466,676.56878 33.4208,682.21338 23.4982,682.18078 z"
id="path13"
/>
<path stroke-width="1px" fill="none" stroke="#000000"
d="M 229.0866,620.4916 237.0743,625.47458 241.1194,600.1146 200,600 228.448264,620.760916 z"
id="path14"
/>
<path stroke-width="1px" fill="none" stroke="#000000"
d="M 406.46366,629.6324 403.93112,629.739106 410.0697,639.94454 413.34066,635.83022 421.23464,644.75262 448.55846,642.13652 458.05846,631.84668 436.59886,600 420.82902,600.016 400,615.03732 408.03801,616.4013 z"
id="path15"
/>
<path stroke-width="1px" fill="none" stroke="#000000"
d="M 612.72598,675.855 602.46608,670.77658 600,664.8243 604.90884,647.8872 605.74298,644.3742 645.57418,600 663.49698,609.4858 z"
id="path16"
/>
<path stroke-width="1px" fill="none" stroke="#000000"
d="M 98.2642,838.2624 91.56128,835.15354 86.1319,832.70546 82.42514,831.00046 73.5766,804.5632 60.1194,800 39.7114,814.562 12.4658,811.4238 3.06920000000001,849.03002 0,854.28034 5.2268,909.689 12.7962,921.4656 71.7702,929.8584 93.9652,908.5932 104.49194,844.70212 103.61248,842.89428 z"
id="path17"
/>
<path stroke-width="1px" fill="none" stroke="#000000"
d="M 235.0096,838.44 237.15912,843.79452 228.57654,867.0296 208.7038,849.71448 213.123,822.53874 200,817.951 230.05668,800 z"
id="path18"
/>
<path stroke-width="1px" fill="none" stroke="#000000"
d="M 446.0488,815.43224 456.76778,815.5237946 454.38932,803.85506 436.27456,805.58028 435.86188,800 400,815.4536718 417.608,825.31866 420.2878,838.67944 443.83934,828.42234 z"
id="path19"
/>
<path stroke-width="1px" fill="none" stroke="#000000"
d="M 600,805.47298 610.34696,806.092164 617.18506,800 623.0676,897.44418 604.98214,887.94518 z"
id="path20"
/>
<path stroke-width="1px" fill="none" stroke="#000000"
d="M 0,1006.60548 0.566112,1032.66448 21.3598,1023.27078 12.5814,1000 z"
id="path21"
/>
<path stroke-width="1px" fill="none" stroke="#000000"
d="M 201.84639,1002.47966 200,1000 202.105896,1006.75452 z"
id="path22"
/>
<path stroke-width="1px" fill="none" stroke="#000000"
d="M 424.0456,1021.1842 404.62984,1023.20822 400,1017.6959 403.3858,1001.0232 419.47574,1000 429.2306,1010.9975 z"
id="path23"
/>
<path stroke-width="1px" fill="none" stroke="#000000"
d="M 648.7708,1030.3498 648.300354,1060.5716 668.7382,1074.731 662.46702,1118.0534 611.5034,1136.5158 605.1204,1131.1138 600,1033.62788 627.6974,1019.7504 619.9486,1000 639.89408,1006.335 z"
id="path24"
/>
<path stroke-width="1px" fill="none" stroke="#000000"
d="M 0.310964,1228.0884 17.834124,1239.52972 43.205964,1221.63468 37.840964,1200 0,1200.3332 z"
id="path25"
/>
<path stroke-width="1px" fill="none" stroke="#000000"
d="M 241.2118,1290.9414 237.27582,1208.4128 217.679,1211.6352 210.5838,1200 200,1279.50076 206.7766,1293.72858 z"
id="path26"
/>
<path stroke-width="1px" fill="none" stroke="#000000"
d="M 428.786,1249.646 422.88454,1272.5308 439.81578,1270.8654 455.0942,1213.8522 453.0742,1200 400,1210.7682 z"
id="path27"
/>
<path stroke-width="1px" fill="none" stroke="#000000"
d="M 602.79348,1223.8486 600,1237.57168 636.27668,1258.3116 640.20448,1250.0388 665.17028,1231.6931 656.28648,1211.17346 630.36148,1200 z"
id="path28"
/>
<path stroke-width="1px" fill="none" stroke="#000000"
d="M 17.65198,1420.0948 15.41828,1441.1914 0,1424.99598 1.80052,1400.20362 43.13358,1400 48.64698,1404.40418 39.62538,1403.13546 z"
id="path29"
/>
<path stroke-width="1px" fill="none" stroke="#000000"
d="M 200,1440.6412 241.987,1440.6201324 253.004,1421.47294 249.9984,1413.6698 234.8176,1400 200.501592,1403.9952 z"
id="path30"
/>
<path stroke-width="1px" fill="none" stroke="#000000"
d="M 463.803,1424.0988 415.7718,1422.293752 402.3222,1400 400,1464.7084 421.6972,1483.6964 442.9142,1483.5392 466.8548,1436.65764 z"
id="path31"
/>
<path stroke-width="1px" fill="none" stroke="#000000"
d="M 675.7828,1408.6385 657.54182,1400 639.8614,1431.4825 600,1449.2317 603.4658,1461.6821 666.34304,1488.2831 z"
id="path32"
/>
<path stroke-width="1px" fill="none" stroke="#000000"
d="M 0,1628.9824 18.74242,1635.77554 20.2886,1604.5128 13.8914,1600 z"
id="path33"
/>
<path stroke-width="1px" fill="none" stroke="#000000"
d="M 213.14844,1600 228.4332,1604.67848 227.63236,1642.5134 219.05586,1639.443 200,1647.3474 200.2575,1630.4648 z"
id="path34"
/>
<path stroke-width="1px" fill="none" stroke="#000000"
d="M 418.20446,1610.59846 417.233488,1610.320222 400,1620.34582 401.97922,1600 424.74918,1601.46618 z"
id="path35"
/>
<path stroke-width="1px" fill="none" stroke="#000000"
d="M 600,1615.4388 626.898,1624.00894 620.4558,1600 605.59166,1600.4175 z"
id="path36"
/>
<path stroke-width="1px" fill="none" stroke="#000000"
d="M 24.9042,1808.36846 13.68242,1800.17882 12.74054,1800 14.49982,1806.553778 0,1819.06098 z"
id="path37"
/>
<path stroke-width="1px" fill="none" stroke="#000000"
d="M 238.5212,1800 245.34552,1809.76474 200,1848.4866 z"
id="path38"
/>
<path stroke-width="1px" fill="none" stroke="#000000"
d="M 484.3026,1813.89258 486.227454,1800.70808 429.8088,1800 425.4922,1800.8871 415.8664,1802.58814 400,1805.9195 400.5182,1813.8693006 z"
id="path39"
/>
<path stroke-width="1px" fill="none" stroke="#000000"
d="M 613.44952,1800 610.58262,1802.90312 606.37578,1807.11892 601.22104,1812.41266 600,1815.25282 620.40356,1816.95962 z"
id="path40"
/>
<path stroke-width="1px" fill="none" stroke="#000000"
d="M 0,2009.06624 11.12634,2007.955782 10.70976,2000 2.22286,2004.87986 z"
id="path41"
/>
<path stroke-width="1px" fill="none" stroke="#000000"
d="M 210.50262,2000.1233154 200.57974,2000 200,2004.6812754 z"
id="path42"
/>
<path stroke-width="1px" fill="none" stroke="#000000"
d="M 419.58828,2032.4266 430.99242,2033.200278 432.2302,2018.12874 429.26668,2018.6781 400,2000 z"
id="path43"
/>
<path stroke-width="1px" fill="none" stroke="#000000"
d="M 600,2030.207 650.8212,2032.24428 658.2244,2005.725 631.4596,2010.0604 600.954898,2000 z"
id="path44"
/>
<path stroke-width="1px" fill="none" stroke="#000000"
d="M 4.30474,2214.8533 0,2230.93412 47.93134,2234.51732 74.61774,2200 z"
id="path45"
/>
<path stroke-width="1px" fill="none" stroke="#000000"
d="M 200.73502,2215.28668 203.5427,2210.44702 200,2200 258.08742,2215.876078 z"
id="path46"
/>
<path stroke-width="1px" fill="none" stroke="#000000"
d="M 415.38764,2200 416.158796,2200.719652 400,2201.423834 z"
id="path47"
/>
<path stroke-width="1px" fill="none" stroke="#000000"
d="M 610.07498,2219.78708 602.91446,2220.516236 600,2206.37036 608.139272,2208.02836 622.99902,2200 z"
id="path48"
/>
<path stroke-width="1px" fill="none" stroke="#000000"
d="M 0.601888,2405.80986 0.365006,2406.079654 0,2400 z"
id="path49"
/>
<path stroke-width="1px" fill="none" stroke="#000000"
d="M 203.40246,2400 200.58158,2403.22252 200,2405.14466 209.90568,2429.2282 223.66126,2419.8522 223.85746,2400.866676 z"
id="path50"
/>
<path stroke-width="1px" fill="none" stroke="#000000"
d="M 476.7058,2428.8878 479.6447,2444.37064 455.695,2472.112 434.8812,2477.4588 400,2450.5042 414.8454,2400 z"
id="path51"
/>
<path stroke-width="1px" fill="none" stroke="#000000"
d="M 652.3382,2422.7478 662.12588,2400 661.87196,2400.236 662.63306,2455.8762 609.2578,2465.0128 600,2461.4484 605.5554,2418.02866 z"
id="path52"
/>
<path stroke-width="1px" fill="none" stroke="#000000"
d="M 13.63224,2620.8004 0,2600 50.77384,2602.99542 60.15384,2627.62934 z"
id="path53"
/>
<path stroke-width="1px" fill="none" stroke="#000000"
d="M 207.32814,2606.62406 202.31498,2600 200,2652.13666 241.90634,2649.53406 247.76574,2628.85886 230.90494,2601.51696 229.62694,2604.25034 z"
id="path54"
/>
<path stroke-width="1px" fill="none" stroke="#000000"
d="M 422.6498,2654.506 400,2600 458.8278,2609.3616 438.75768,2655.18694 z"
id="path55"
/>
<path stroke-width="1px" fill="none" stroke="#000000"
d="M 600,2625.1004 648.0436,2600 656.7078,2604.8316 673.932,2650.0358 661.211,2661.1442 612.05644,2643.6113 z"
id="path56"
/>
<path stroke-width="1px" fill="none" stroke="#000000"
d="M 35.5036,2846.6108 5.2538,2835.79994 0,2810.7426 29.12914,2800 53.65932,2840.52642 z"
id="path57"
/>
<path stroke-width="1px" fill="none" stroke="#000000"
d="M 238.2846,2803.6923 204.4678,2821.77372 200,2815.34616 205.4108,2800 z"
id="path58"
/>
<path stroke-width="1px" fill="none" stroke="#000000"
d="M 425.7634,2800.671678 422.16498,2811.787598 402.1678,2806.714458 400,2800 z"
id="path59"
/>
<path stroke-width="1px" fill="none" stroke="#000000"
d="M 604.86998,2805.191 601.04396,2800 600,2800.00496 z"
id="path60"
/>
<path stroke-width="1px" fill="none" stroke="#000000"
d="M 0,3000 10.39546,3014.24418 9.35094,3014.20866 z"
id="path61"
/>
<path stroke-width="1px" fill="none" stroke="#000000"
d="M 216.38198,3040.5668 200,3026.21244 210.51544,3022.25434 221.62026,3000 236.59258,3020.1084 z"
id="path62"
/>
<path stroke-width="1px" fill="none" stroke="#000000"
d="M 442.81,3000 442.491772,3009.4091 450.62682,3008.87312 400,3033.7838 z"
id="path63"
/>
<path stroke-width="1px" fill="none" stroke="#000000"
d="M 608.5595,3004.34834 610.443582,3000 600,3004.2639098 600.73788,3005.01813 z"
id="path64"
/>
</svg>
